<svg height="512pt" viewBox="0 -31 512 512" width="512pt" xmlns="http://www.w3.org/2000/svg"><path d="m497 450h-482c-8.285156 0-15-6.714844-15-15v-300c0-8.285156 6.714844-15 15-15h106v-105c0-8.285156 6.714844-15 15-15h240c8.285156 0 15 6.714844 15 15v105h106c8.285156 0 15 6.714844 15 15v300c0 8.285156-6.714844 15-15 15zm0 0" fill="#e1ebf0"/><path d="m497 120h-106v-105c0-8.285156-6.714844-15-15-15h-120v450h241c8.285156 0 15-6.714844 15-15v-300c0-8.285156-6.714844-15-15-15zm0 0" fill="#cde1e6"/><path d="m286 90h-15v-15c0-8.285156-6.714844-15-15-15s-15 6.714844-15 15v15h-15c-8.285156 0-15 6.714844-15 15s6.714844 15 15 15h15v15c0 8.285156 6.714844 15 15 15s15-6.714844 15-15v-15h15c8.285156 0 15-6.714844 15-15s-6.714844-15-15-15zm0 0" fill="#fc0023"/><g fill="#00d7df"><path d="m497 180h-120c-8.285156 0-15 6.714844-15 15v60c0 8.285156 6.714844 15 15 15h120c8.285156 0 15-6.714844 15-15v-60c0-8.285156-6.714844-15-15-15zm0 0"/><path d="m497 300h-120c-8.285156 0-15 6.714844-15 15v60c0 8.285156 6.714844 15 15 15h120c8.285156 0 15-6.714844 15-15v-60c0-8.285156-6.714844-15-15-15zm0 0"/><path d="m135 180h-120c-8.285156 0-15 6.714844-15 15v60c0 8.285156 6.714844 15 15 15h120c8.285156 0 15-6.714844 15-15v-60c0-8.285156-6.714844-15-15-15zm0 0"/><path d="m135 300h-120c-8.285156 0-15 6.714844-15 15v60c0 8.285156 6.714844 15 15 15h120c8.285156 0 15-6.714844 15-15v-60c0-8.285156-6.714844-15-15-15zm0 0"/></g><path d="m437 180v90h60c8.285156 0 15-6.714844 15-15v-60c0-8.285156-6.714844-15-15-15zm0 0" fill="#00c7ce"/><path d="m437 300v90h60c8.285156 0 15-6.714844 15-15v-60c0-8.285156-6.714844-15-15-15zm0 0" fill="#00c7ce"/><path d="m75 180v90h60c8.285156 0 15-6.714844 15-15v-60c0-8.285156-6.714844-15-15-15zm0 0" fill="#00c7ce"/><path d="m75 300v90h60c8.285156 0 15-6.714844 15-15v-60c0-8.285156-6.714844-15-15-15zm0 0" fill="#00c7ce"/><path d="m256 270c-8.269531 0-15-6.730469-15-15s6.730469-15 15-15h30c8.285156 0 15-6.714844 15-15s-6.714844-15-15-15h-15v-5c0-8.285156-6.714844-15-15-15s-15 6.714844-15 15v7.578125c-17.460938 6.195313-30 22.867187-30 42.421875 0 24.8125 20.1875 45 45 45 8.269531 0 15 6.730469 15 15s-6.730469 15-15 15h-26.84375c-8.28125 0-15 6.714844-15 15s6.71875 15 15 15h11.84375v5c0 8.285156 6.714844 15 15 15s15-6.714844 15-15v-7.578125c17.460938-6.195313 30-22.867187 30-42.421875 0-24.8125-20.1875-45-45-45zm0 0" fill="#ffd422"/><path d="m271 135v-15h15c8.285156 0 15-6.714844 15-15s-6.714844-15-15-15h-15v-15c0-8.285156-6.714844-15-15-15v90c8.285156 0 15-6.714844 15-15zm0 0" fill="#c9001c"/><path d="m271 365v-7.578125c17.460938-6.195313 30-22.867187 30-42.421875 0-24.8125-20.1875-45-45-45v30c8.269531 0 15 6.730469 15 15s-6.730469 15-15 15v50c8.285156 0 15-6.714844 15-15zm0 0" fill="#eebf00"/><path d="m286 240c8.285156 0 15-6.714844 15-15s-6.714844-15-15-15h-15v-5c0-8.285156-6.714844-15-15-15v50zm0 0" fill="#eebf00"/></svg>